<?xml version="1.0" encoding="utf-8"?>
<!-- Generator: Adobe Illustrator 23.0.2, SVG Export Plug-In . SVG Version: 6.00 Build 0)  -->
<svg version="1.1" id="Livello_1" xmlns="http://www.w3.org/2000/svg" xmlns:xlink="http://www.w3.org/1999/xlink" x="0px" y="0px"
	 viewBox="0 0 180.72 87.81" style="enable-background:new 0 0 180.72 87.81;" xml:space="preserve">
<style type="text/css">
	.st0{fill:#B477FF;}
	.st1{fill:#FFFFFF;}
	.st2{fill:none;stroke:#B477FF;stroke-width:6;stroke-linejoin:round;stroke-miterlimit:10;}
</style>
<g>
	<g>
		<path class="st0" d="M46.08,4c1.34,0,2.64,0.53,3.56,1.46l36.75,36.9c1.6,1.61,2.14,4.43,1.26,6.55c-0.8,1.92-2.6,3.06-4.82,3.06
			h-1.52v25.4c0,3.55-3.07,6.43-6.85,6.43h-6.69c-2.51,0-3.94-1.06-4.69-1.95c-1.3-1.53-1.31-3.34-1.24-4.12V60.5H46.82v17.26
			c0,3.01-2.37,6.05-6.9,6.05H17.7c-3.78,0-6.85-2.89-6.85-6.43v-25.4H9.34c-2.28,0-4.12-1.14-4.91-3.04
			c-0.99-2.39-0.05-5.17,1.35-6.57l36.75-36.9C43.44,4.53,44.74,4,46.08,4 M46.08,0c-2.4,0-4.73,0.96-6.4,2.64L2.94,39.54
			c-2.29,2.3-3.96,6.7-2.21,10.93c1.1,2.65,3.34,4.51,6.12,5.21v21.7c0,5.75,4.87,10.43,10.85,10.43h22.22
			c7.08,0,10.9-5.18,10.9-10.05V64.5h7.02v13.09c-0.17,2.52,0.62,5.01,2.19,6.86c1.84,2.17,4.59,3.36,7.74,3.36h6.69
			c5.98,0,10.85-4.68,10.85-10.43V55.66c2.73-0.7,4.94-2.57,6.04-5.22c1.52-3.65,0.64-8.13-2.12-10.91L52.48,2.64
			C50.82,0.96,48.48,0,46.08,0L46.08,0z"/>
		<path class="st1" d="M67.77,83.81c-2.51,0-3.94-1.06-4.69-1.95c-1.3-1.53-1.31-3.34-1.24-4.12V60.5H46.82v17.26
			c0,3.01-2.37,6.05-6.9,6.05H17.7c-3.78,0-6.85-2.89-6.85-6.43v-25.4H9.34c-2.28,0-4.12-1.14-4.91-3.04
			c-0.99-2.39-0.05-5.17,1.35-6.57l36.75-36.9C43.44,4.53,44.74,4,46.08,4c1.34,0,2.64,0.53,3.56,1.46l36.75,36.9
			c1.6,1.61,2.14,4.43,1.26,6.55c-0.8,1.92-2.6,3.06-4.82,3.06h-1.52v25.4c0,3.55-3.07,6.43-6.85,6.43H67.77z"/>
	</g>
	<g>
		<path class="st2" d="M107.39,54.47c3.03,0,5.4,1.18,7.12,3.55c1.71,2.36,2.57,5.61,2.57,9.72c0,4.24-0.88,7.52-2.65,9.85
			c-1.77,2.33-4.17,3.49-7.22,3.49c-3.02,0-5.38-1.09-7.09-3.28h-0.48l-1.17,2.82h-5.35V44.9h7v8.31c0,1.06-0.09,2.75-0.28,5.07
			h0.28C101.75,55.74,104.18,54.47,107.39,54.47z M105.14,60.07c-1.73,0-2.99,0.53-3.79,1.6c-0.8,1.06-1.21,2.82-1.24,5.27v0.76
			c0,2.75,0.41,4.73,1.23,5.92c0.82,1.19,2.12,1.79,3.89,1.79c1.44,0,2.58-0.66,3.43-1.99c0.85-1.32,1.27-3.25,1.27-5.77
			c0-2.53-0.43-4.42-1.29-5.68C107.79,60.7,106.62,60.07,105.14,60.07z"/>
		<path class="st1" d="M107.39,54.47c3.03,0,5.4,1.18,7.12,3.55c1.71,2.36,2.57,5.61,2.57,9.72c0,4.24-0.88,7.52-2.65,9.85
			c-1.77,2.33-4.17,3.49-7.22,3.49c-3.02,0-5.38-1.09-7.09-3.28h-0.48l-1.17,2.82h-5.35V44.9h7v8.31c0,1.06-0.09,2.75-0.28,5.07
			h0.28C101.75,55.74,104.18,54.47,107.39,54.47z M105.14,60.07c-1.73,0-2.99,0.53-3.79,1.6c-0.8,1.06-1.21,2.82-1.24,5.27v0.76
			c0,2.75,0.41,4.73,1.23,5.92c0.82,1.19,2.12,1.79,3.89,1.79c1.44,0,2.58-0.66,3.43-1.99c0.85-1.32,1.27-3.25,1.27-5.77
			c0-2.53-0.43-4.42-1.29-5.68C107.79,60.7,106.62,60.07,105.14,60.07z"/>
	</g>
	<g>
		<path class="st2" d="M146.55,80.62h-7V65.63c0-1.85-0.33-3.24-0.99-4.17c-0.66-0.93-1.71-1.39-3.15-1.39
			c-1.96,0-3.37,0.65-4.25,1.96c-0.87,1.31-1.31,3.48-1.31,6.51v12.07h-7V54.95h5.35l0.94,3.28h0.39c0.78-1.24,1.86-2.18,3.23-2.81
			c1.37-0.63,2.93-0.95,4.67-0.95c2.98,0,5.25,0.81,6.79,2.42c1.55,1.61,2.32,3.94,2.32,6.99V80.62z"/>
		<path class="st1" d="M146.55,80.62h-7V65.63c0-1.85-0.33-3.24-0.99-4.17c-0.66-0.93-1.71-1.39-3.15-1.39
			c-1.96,0-3.37,0.65-4.25,1.96c-0.87,1.31-1.31,3.48-1.31,6.51v12.07h-7V54.95h5.35l0.94,3.28h0.39c0.78-1.24,1.86-2.18,3.23-2.81
			c1.37-0.63,2.93-0.95,4.67-0.95c2.98,0,5.25,0.81,6.79,2.42c1.55,1.61,2.32,3.94,2.32,6.99V80.62z"/>
	</g>
	<g>
		<path class="st2" d="M168.04,54.47c3.03,0,5.4,1.18,7.12,3.55c1.71,2.36,2.57,5.61,2.57,9.72c0,4.24-0.88,7.52-2.65,9.85
			c-1.77,2.33-4.17,3.49-7.22,3.49c-3.02,0-5.38-1.09-7.09-3.28h-0.48l-1.17,2.82h-5.35V44.9h7v8.31c0,1.06-0.09,2.75-0.28,5.07
			h0.28C162.4,55.74,164.82,54.47,168.04,54.47z M165.79,60.07c-1.73,0-2.99,0.53-3.79,1.6c-0.8,1.06-1.21,2.82-1.24,5.27v0.76
			c0,2.75,0.41,4.73,1.23,5.92c0.82,1.19,2.12,1.79,3.89,1.79c1.44,0,2.58-0.66,3.43-1.99c0.85-1.32,1.27-3.25,1.27-5.77
			c0-2.53-0.43-4.42-1.29-5.68S167.27,60.07,165.79,60.07z"/>
		<path class="st1" d="M168.04,54.47c3.03,0,5.4,1.18,7.12,3.55c1.71,2.36,2.57,5.61,2.57,9.72c0,4.24-0.88,7.52-2.65,9.85
			c-1.77,2.33-4.17,3.49-7.22,3.49c-3.02,0-5.38-1.09-7.09-3.28h-0.48l-1.17,2.82h-5.35V44.9h7v8.31c0,1.06-0.09,2.75-0.28,5.07
			h0.28C162.4,55.74,164.82,54.47,168.04,54.47z M165.79,60.07c-1.73,0-2.99,0.53-3.79,1.6c-0.8,1.06-1.21,2.82-1.24,5.27v0.76
			c0,2.75,0.41,4.73,1.23,5.92c0.82,1.19,2.12,1.79,3.89,1.79c1.44,0,2.58-0.66,3.43-1.99c0.85-1.32,1.27-3.25,1.27-5.77
			c0-2.53-0.43-4.42-1.29-5.68S167.27,60.07,165.79,60.07z"/>
	</g>
</g>
</svg>
